<svg width="1600" height="1200" viewBox="0 0 1600 1200" fill="none" xmlns="http://www.w3.org/2000/svg">
  <rect width="1600" height="1200" fill="#EFF6EE"/>
  <rect y="760" width="1600" height="440" fill="#DDECD8"/>
  <circle cx="1280" cy="198" r="104" fill="#F2C879"/>
  <path d="M0 830C162 740 293 721 449 749C639 785 747 875 932 883C1119 890 1285 772 1448 730C1511 714 1562 710 1600 712V1200H0V830Z" fill="#BFD9B5"/>
  <path d="M0 909C166 867 289 855 450 890C590 921 741 1002 906 997C1132 990 1324 847 1600 835V1200H0V909Z" fill="#95BC8A"/>
  <rect x="1048" y="432" width="248" height="284" rx="28" fill="#E9D8B8"/>
  <rect x="1069" y="451" width="206" height="176" rx="18" fill="#FFF8EA"/>
  <rect x="1130" y="611" width="82" height="105" rx="14" fill="#8B6A46"/>
  <path d="M1025 438L1172 330L1318 438H1025Z" fill="#5D7A48"/>
  <rect x="354" y="530" width="424" height="78" rx="24" fill="#5C8D4F"/>
  <rect x="397" y="582" width="54" height="152" rx="20" fill="#5D7A48"/>
  <rect x="481" y="597" width="54" height="137" rx="20" fill="#5D7A48"/>
  <rect x="566" y="570" width="54" height="164" rx="20" fill="#5D7A48"/>
  <rect x="650" y="593" width="54" height="141" rx="20" fill="#5D7A48"/>
  <circle cx="330" cy="481" r="95" fill="#6CA05F"/>
  <circle cx="275" cy="529" r="78" fill="#7DB86E"/>
  <circle cx="398" cy="519" r="82" fill="#7DB86E"/>
  <rect x="325" y="540" width="34" height="150" rx="15" fill="#7A5B3E"/>
  <circle cx="782" cy="412" r="72" fill="#6CA05F"/>
  <circle cx="725" cy="457" r="58" fill="#7DB86E"/>
  <circle cx="845" cy="463" r="55" fill="#7DB86E"/>
  <rect x="776" y="460" width="28" height="120" rx="12" fill="#7A5B3E"/>
  <path d="M932 770C964 715 1015 704 1065 734C1113 763 1171 758 1212 730" stroke="#5D7A48" stroke-width="14" stroke-linecap="round"/>
  <rect x="899" y="805" width="253" height="104" rx="32" fill="#FFF8EA"/>
  <path d="M932 853H1118" stroke="#5D7A48" stroke-width="18" stroke-linecap="round"/>
  <path d="M932 885H1063" stroke="#C59454" stroke-width="18" stroke-linecap="round"/>
  <circle cx="210" cy="909" r="52" fill="#F2C879" fill-opacity="0.46"/>
  <circle cx="1368" cy="928" r="64" fill="#6CA05F" fill-opacity="0.22"/>
</svg>
